<svg width="441" height="138" viewBox="0 0 441 138" fill="none" xmlns="http://www.w3.org/2000/svg">
<path d="M177.759 47.656L173.471 72.104C173.151 73.896 172.575 75.432 171.807 76.584C172.831 76.904 174.175 77.16 175.711 77.16C186.079 77.16 192.351 68.456 192.351 55.592C192.351 43.752 185.119 36.52 172.959 36.52C163.487 36.52 159.967 41.064 159.967 44.712C159.967 46.504 160.927 47.656 162.527 47.656C163.231 47.656 163.615 47.464 163.615 47.464C163.615 47.464 163.679 47.656 163.679 48.04C163.679 49.576 162.079 51.624 158.815 51.624C154.655 51.624 152.095 49.064 152.095 45.224C152.095 38.888 158.943 33 172.639 33C190.239 33 201.247 42.664 201.247 56.552C201.247 71.848 191.455 81 177.823 81C173.983 81 171.103 80.104 169.055 79.272C167.135 80.552 164.831 81 162.463 81C158.687 81 157.279 79.08 157.279 77.224C157.279 75.176 158.751 73.384 162.143 73.384C162.911 73.384 163.807 73.512 164.639 73.704L169.247 47.336C170.015 42.92 169.311 41.32 169.311 41.32C169.311 41.32 170.335 40.68 172.959 40.68C177.695 40.68 178.591 42.728 177.759 47.656ZM236.681 75.432C239.177 75.432 241.545 73.576 243.401 69.864C244.233 69.864 244.809 70.376 244.617 71.528C243.977 74.92 239.305 81 233.353 81C228.553 81 225.609 77.8 225.609 73C225.609 71.336 226.057 68.84 226.569 65.704L227.785 58.664C228.297 55.592 227.657 54.632 226.249 54.632C222.217 54.632 216.073 64.168 214.153 74.92C213.449 78.952 214.089 80.424 214.089 80.424C214.089 80.424 213.129 81 210.761 81C205.833 81 205.257 79.144 206.025 74.664L213.129 33.96C213.833 29.928 213.193 28.456 213.193 28.456C213.193 28.456 214.153 27.88 216.521 27.88C221.449 27.88 222.025 29.736 221.257 34.216L217.033 58.28C219.529 54.12 224.329 49 229.577 49C233.609 49 236.169 51.624 236.169 55.592C236.169 57 235.913 58.856 235.593 60.776L234.057 69.8C233.417 73.384 234.249 75.432 236.681 75.432ZM291.039 68.136C289.119 68.136 287.455 67.496 286.175 66.6C285.343 69.096 284.383 71.336 283.359 72.936C280.415 77.672 277.215 81 272.095 81C267.551 81 264.479 78.248 263.263 73.896C260.767 77.928 257.311 81 252.831 81C246.431 81 243.422 76.52 243.422 69.16C243.422 66.024 243.806 62.376 244.447 58.28L244.959 55.08C245.599 51.048 245.023 49.576 245.023 49.576C245.023 49.576 245.983 49 248.351 49C253.279 49 253.855 50.856 253.087 55.336L252.191 60.52C251.615 63.784 251.423 66.472 251.423 68.52C251.423 73.768 253.087 75.432 255.839 75.432C258.975 75.432 261.407 71.976 262.751 66.664C262.878 64.04 263.199 61.032 263.647 58.28L264.159 55.08C264.863 51.048 264.223 49.576 264.223 49.576C264.223 49.576 265.183 49 267.551 49C272.479 49 273.055 50.856 272.287 55.336L271.391 60.52C270.751 64.104 270.559 66.6 270.559 68.776C270.559 73.512 272.159 75.432 275.039 75.432C278.815 75.432 281.951 70.632 282.911 63.208C281.119 60.584 280.095 57.448 280.095 53.736C280.095 50.984 281.823 49 284.447 49C286.687 49 288.479 50.408 288.479 53.8C288.479 56.68 287.967 60.072 287.135 63.208C288.031 64.424 289.439 65.32 291.487 65.32C296.351 65.32 298.335 60.264 298.335 60.264C299.359 60.264 299.615 61.16 299.487 61.864C299.103 64.104 296.287 68.136 291.039 68.136ZM323.351 54.248L320.599 69.8C319.895 73.64 321.047 75.432 323.351 75.432C325.527 75.432 328.407 73.32 330.071 69.864C330.903 69.864 331.479 70.376 331.287 71.528C330.647 74.92 326.039 81 319.831 81C315.607 81 312.663 78.376 312.343 73.768C309.719 78.504 306.199 81 302.551 81C297.303 81 293.142 77.48 293.142 69.992C293.142 55.72 301.463 49 308.951 49C312.151 49 314.391 50.28 315.863 52.136C316.887 49.832 318.487 49 321.623 49C323.799 49 324.823 49.64 324.823 49.64C324.823 49.64 323.991 50.792 323.351 54.248ZM305.111 75.432C309.655 75.432 313.047 65.832 314.263 59.432L314.839 56.424C314.263 55.144 313.047 53.352 310.615 53.352C306.263 53.352 301.335 59.816 301.335 70.12C301.335 73.704 302.743 75.432 305.111 75.432ZM349.632 65.704L350.848 58.664C351.36 55.592 350.72 54.632 349.312 54.632C345.28 54.632 339.2 64.168 337.216 74.92C336.512 78.952 337.152 80.424 337.152 80.424C337.152 80.424 336.192 81 333.824 81C328.895 81 328.319 79.144 329.087 74.664L332.48 55.08C333.184 51.048 332.544 49.576 332.544 49.576C332.544 49.576 333.504 49 335.872 49C340.8 49 341.376 50.856 340.608 55.336L340.095 58.28C342.592 54.12 347.456 49 352.64 49C356.672 49 359.232 51.624 359.232 55.592C359.232 57 358.976 58.856 358.656 60.776L357.12 69.8C356.544 72.936 357.056 75.432 359.744 75.432C362.432 75.432 364.8 73.192 366.464 69.864C367.296 69.864 367.872 70.376 367.68 71.528C367.168 74.792 362.368 81 356.416 81C351.616 81 348.672 77.8 348.672 73C348.672 71.336 349.248 67.816 349.632 65.704ZM366.421 66.92L368.469 55.08C369.173 51.048 368.533 49.576 368.533 49.576C368.533 49.576 369.493 49 371.861 49C376.789 49 377.365 50.856 376.597 55.336L374.165 69.48C373.397 74.088 374.421 75.432 376.085 75.432C377.941 75.432 378.517 73.64 378.517 73.64C379.413 73.64 379.861 74.344 379.733 75.496C379.477 78.056 376.469 81 372.309 81C368.981 81 365.845 78.376 365.845 73.448C365.845 71.592 365.973 69.48 366.421 66.92ZM370.709 39.4C370.709 36.776 372.757 34.792 375.189 34.792C377.621 34.792 379.157 36.52 379.157 38.824C379.157 41.064 377.365 43.24 374.549 43.24C372.245 43.24 370.709 41.64 370.709 39.4ZM388.73 37.608C388.73 34.984 390.778 33 393.21 33C395.642 33 397.37 34.728 397.37 37.48C397.37 41.896 393.274 47.592 390.394 47.592C389.306 47.592 388.794 46.888 388.794 46.248C390.202 44.968 391.098 43.112 391.418 41.32C389.754 40.872 388.73 39.464 388.73 37.608ZM407.551 60.264L413.055 63.144C417.727 65.576 419.391 68.2 419.391 71.592C419.391 76.648 415.103 81 405.823 81C397.631 81 394.175 76.776 394.175 73.448C394.175 71.016 396.159 69.608 398.399 69.608C400.575 69.608 401.471 70.504 401.471 70.504C401.471 70.504 401.151 71.208 401.151 72.36C401.151 75.496 402.815 77.736 406.463 77.8C410.111 77.8 411.839 75.88 411.839 73.768C411.839 72.232 411.007 70.952 408.703 69.736L402.431 66.408C399.359 64.744 396.863 62.696 396.863 58.408C396.863 53.224 401.343 49 410.431 49C418.367 49 422.079 53.224 422.079 56.552C422.079 58.984 420.095 60.392 417.855 60.392C415.679 60.392 414.783 59.496 414.783 59.496C414.783 59.496 415.103 58.792 415.103 57.64C415.103 54.632 413.247 52.2 409.663 52.2C406.143 52.2 404.415 53.992 404.415 56.232C404.415 58.088 405.439 59.176 407.551 60.264ZM274.617 98.32C272.649 98.32 271.281 99.496 271.281 101.248C271.281 102.232 271.857 103.192 272.961 103.84L276.009 105.616C278.049 106.816 278.817 108.232 278.817 109.912C278.817 112.576 276.465 115 272.097 115C268.809 115 266.625 113.368 266.625 111.136C266.625 109.408 267.585 108.64 268.737 108.64C269.889 108.64 270.201 109.264 270.201 109.264C270.201 109.264 269.361 110.032 269.361 111.256C269.361 112.696 270.393 113.68 272.241 113.68C274.401 113.68 275.745 112.36 275.745 110.8C275.745 109.6 275.145 108.736 273.537 107.824L270.969 106.36C268.953 105.208 268.209 103.84 268.209 102.112C268.209 99.448 270.465 97 274.641 97C278.049 97 280.329 98.704 280.329 101.08C280.329 102.76 279.441 103.744 277.977 103.744C276.825 103.744 276.393 103.12 276.393 103.12C276.393 103.12 277.593 102.448 277.593 100.696C277.593 99.352 276.657 98.32 274.617 98.32ZM292.128 104.968L291.096 110.8C290.832 112.24 291.264 112.912 292.128 112.912C292.944 112.912 294.024 112.12 294.648 110.824C294.96 110.824 295.176 111.016 295.104 111.448C294.864 112.72 293.136 115 290.808 115C289.224 115 288.12 114.016 288 112.288C287.016 114.064 285.696 115 284.328 115C282.36 115 280.8 113.68 280.8 110.872C280.8 105.52 283.92 103 286.728 103C287.928 103 288.768 103.48 289.32 104.176C289.704 103.312 290.304 103 291.48 103C292.296 103 292.68 103.24 292.68 103.24C292.68 103.24 292.368 103.672 292.128 104.968ZM285.288 112.912C286.992 112.912 288.264 109.312 288.72 106.912L288.936 105.784C288.72 105.304 288.264 104.632 287.352 104.632C285.72 104.632 283.872 107.056 283.872 110.92C283.872 112.264 284.4 112.912 285.288 112.912ZM294.615 109.72L296.799 97.36C297.063 95.848 296.823 95.296 296.823 95.296C296.823 95.296 297.183 95.08 298.071 95.08C299.919 95.08 300.135 95.776 299.847 97.456L297.495 110.8C297.255 112.216 297.663 112.912 298.527 112.912C299.487 112.912 300.567 112.12 301.191 110.824C301.503 110.824 301.719 111.016 301.647 111.448C301.407 112.72 299.535 115 297.207 115C295.551 115 294.399 113.92 294.399 112C294.399 111.52 294.447 110.68 294.615 109.72ZM307.369 103C310.177 103 311.785 104.848 311.785 107.584C311.785 108.112 311.737 108.616 311.665 109.096C313.465 108.832 314.569 107.224 314.569 107.224C314.881 107.224 315.049 107.464 315.001 107.824C314.857 108.664 313.345 109.96 311.425 110.2C310.609 113.056 308.401 115 305.137 115C302.593 115 300.721 113.392 300.721 110.416C300.721 106.072 303.265 103 307.369 103ZM307.465 107.656C307.465 106.84 307.897 106.192 308.689 106.024C308.569 104.824 308.017 104.176 307.129 104.176C305.929 104.176 304.681 105.4 304.009 108.976C303.889 109.6 303.793 110.848 303.793 111.448C303.793 112.96 304.369 113.8 305.377 113.8C306.673 113.8 307.753 112.432 308.377 109.552C307.777 109.096 307.465 108.448 307.465 107.656ZM321.295 109.264L321.751 106.624C321.943 105.472 321.703 105.112 321.175 105.112C319.663 105.112 317.383 108.688 316.639 112.72C316.375 114.232 316.615 114.784 316.615 114.784C316.615 114.784 316.255 115 315.367 115C313.519 115 313.303 114.304 313.591 112.624L314.863 105.28C315.127 103.768 314.887 103.216 314.887 103.216C314.887 103.216 315.247 103 316.135 103C317.983 103 318.199 103.696 317.911 105.376L317.719 106.48C318.655 104.92 320.479 103 322.423 103C323.935 103 324.895 103.984 324.895 105.472C324.895 106 324.799 106.696 324.679 107.416L324.103 110.8C323.887 111.976 324.079 112.912 325.087 112.912C326.095 112.912 326.983 112.072 327.607 110.824C327.919 110.824 328.135 111.016 328.063 111.448C327.871 112.672 326.071 115 323.839 115C322.039 115 320.935 113.8 320.935 112C320.935 111.376 321.151 110.056 321.295 109.264Z" fill="white"/>
<path d="M71.365 55.1454C62.8401 42.3641 67.955 5.70603 60.2844 3.49564C53.4665 1.44814 32.3231 15.4288 21.9256 34.0108C11.5245 52.5946 -1.2591 80.3762 24.6548 97.9405C38.8005 108.847 20.5656 113.963 17.3229 105.27C17.0209 122.95 34.3882 123.405 36.9284 110.895C38.6952 102.186 28.1099 83.9143 24.8261 75.094C16.8107 53.6163 40.5076 24.8024 40.5076 24.8024C40.5076 24.8024 19.3685 59.582 27.8913 76.461C57.0461 119.421 37.6394 118.397 30.1061 123.516C58.5774 124.879 68.364 99.77 70.0006 96.4069C73.7467 86.3481 71.4461 68.4478 62.1566 59.9291C59.9418 57.967 57.8961 60.3532 50.1805 59.9291C42.4652 59.4984 46.6439 52.2563 46.6439 52.2563C46.6439 52.2563 43.9815 49.9964 43.9151 49.0176C43.8509 48.0406 46.2972 47.3128 46.2972 47.3128C46.2972 47.3128 43.911 46.0317 43.7415 44.9266C43.5746 43.8106 46.3034 41.1695 46.3034 41.1695C46.3034 41.1695 42.7007 39.5072 42.6343 37.8449C42.5701 36.183 46.565 33.441 50.3907 25.4877C53.2868 19.4772 53.1195 9.46351 57.7204 7.15884C60.4492 11.85 49.2017 47.6488 67.6101 59.072C71.018 60.946 92.8405 77.9945 74.938 99.9839C94.717 86.1764 76.7243 63.0174 71.365 55.1454Z" fill="white"/>
<path d="M85.8535 1.10556C94.3784 11.1688 85.6818 49.1846 105.799 61.7969C133.071 81.2333 113.849 107.434 109.891 114.477C116.711 94.7022 116.201 84.472 112.958 76.461C109.715 68.4519 89.2631 47.1415 86.0244 36.397C82.7861 25.655 81.7621 -4.00091 66.0696 1.39905C80.5709 19.6938 71.7888 36.4678 91.5634 61.6255C111.338 86.7811 107.329 122.145 90.8011 130.323C116.625 96.1458 93.8681 69.4652 87.2193 58.892C83.7021 53.2994 76.3126 48.6662 75.627 35.7135C74.9457 22.7546 65.9409 0.334028 62.3316 1.61954C71.7073 20.2011 61.9889 46.2841 82.957 71.3454C97.2738 87.0291 103.588 121.125 79.3841 138C104.784 136.976 119.443 109.876 125.579 92.3113C133.761 67.9331 110.404 46.9698 105.974 38.4427C101.542 29.9129 99.1507 1.28092 85.8535 1.10556Z" fill="white"/>
<path d="M118.583 28.6366C110.4 15.5962 99.0527 7.94914 94.8113 4.72986C106.438 24.8024 105.667 33.7515 109.887 39.8929C114.106 46.0277 121.522 47.439 128.556 69.3775C128.809 66.2584 126.766 41.6832 118.583 28.6366Z" fill="white"/>
<path d="M83.9986 15.6002C84.5724 18.7897 87.3829 35.2871 89.5588 38.359C88.1581 18.158 90.0772 19.3059 88.4109 11.762C86.7446 4.21546 83.8056 0.126325 74.0898 0.00012207C83.8056 8.18242 83.4244 12.411 83.9986 15.6002Z" fill="white"/>
</svg>
